{"title":"Highway Patrol - S08E03","uid":15312285,"size":173954731,"categoryP":"video","categoryS":"tv_shows","magnet":"?xt=urn:btih:5be661deea5a3a8ed7a98432eeee5431b5743410&amp;dn=Highway+Patrol+-+S08E03&amp;tr=udp%3A%2F%2Ftracker.leechers-paradise.org%3A6969&amp;tr=udp%3A%2F%2Fzer0day.ch%3A1337&amp;tr=udp%3A%2F%2Fopen.demonii.com%3A1337&amp;tr=udp%3A%2F%2Ftracker.coppersurfer.tk%3A6969&amp;tr=udp%3A%2F%2Fexodus.desync.com%3A6969","seeders":5,"leechers":0,"uploader":"Bullrout","files":1,"time":1468594240,"description":"Highway Patrol - S08E03\r\n\r\nA crowbar wielding driver gets out of control when he learns his car is to be impounded by police.\r\n\r\nComplete name : Highway Patrol - S08E03.mp4\r\nFormat : MPEG-4\r\nFormat profile : Base Media / Version 2\r\nCodec ID : mp42 (mp42/isom/avc1)\r\nFile size : 166 MiB\r\nDuration : 20mn 45s\r\nOverall bit rate mode : Variable\r\nOverall bit rate : 1 118 Kbps\r\n\r\nVideo\r\nID : 2\r\nFormat : AVC\r\nFormat/Info : Advanced Video Codec\r\nFormat profile :   \r\nFormat settings, CABAC : Yes\r\nFormat settings, ReFrames : 3 frames\r\nCodec ID : avc1\r\nCodec ID/Info : Advanced Video Coding\r\nDuration : 20mn 45s\r\nBit rate mode : Variable\r\nBit rate : 986 Kbps\r\nMaximum bit rate : 1 000 Kbps\r\nWidth : 720 pixels\r\nHeight : 404 pixels\r\nDisplay aspect ratio : 16:9\r\nOriginal display aspect ratio : 16:9\r\nFrame rate mode : Constant\r\nFrame rate : 25.000 fps\r\nStandard : PAL\r\nColor space : YUV\r\nChroma subsampling : 4:2:0\r\nBit depth : 8 bits\r\nScan type : Progressive\r\nBits/(Pixel*Frame) : 0.136\r\nStream size : 146 MiB (88%)\r\nWriting library : x264 core 112\r\nColor range : Limited\r\nColor primaries : BT.601 PAL\r\nTransfer characteristics : BT.470 System B, BT.470 System G\r\nMatrix coefficients : BT.601\r\n\r\nAudio\r\nID : 1\r\nFormat : AAC\r\nFormat/Info : Advanced Audio Codec\r\nFormat profile : LC\r\nCodec ID : 40\r\nDuration : 20mn 45s\r\nBit rate mode : Variable\r\nBit rate : 128 Kbps\r\nMaximum bit rate : 576 Kbps\r\nChannel(s) : 2 channels\r\nChannel positions : Front: L R\r\nSampling rate : 48.0 KHz\r\nFrame rate : 46.875 fps (1024 spf)\r\nCompression mode : Lossy\r\nStream size : 19.0 MiB (11%)","torrent":{"xt":"urn:btih:5be661deea5a3a8ed7a98432eeee5431b5743410","amp;dn":"Highway+Patrol+-+S08E03","amp;tr":["udp%3A%2F%2Ftracker.leechers-paradise.org%3A6969","udp%3A%2F%2Fzer0day.ch%3A1337","udp%3A%2F%2Fopen.demonii.com%3A1337","udp%3A%2F%2Ftracker.coppersurfer.tk%3A6969","udp%3A%2F%2Fexodus.desync.com%3A6969"],"infoHash":"5be661deea5a3a8ed7a98432eeee5431b5743410","infoHashBuffer":{"type":"Buffer","data":[91,230,97,222,234,90,58,142,215,169,132,50,238,238,84,49,181,116,52,16]},"announce":[],"urlList":[]}}